<svg width="87" height="43" fill="none" xmlns="http://www.w3.org/2000/svg"><g clip-path="url(#clip0_608_301)" fill="#fff"><path d="M24.595 22.57l.874-.982.927-1.066c.729-.81 1.387-1.526 1.946-2.15 1.428-1.598 2.731-3.053 3.856-4.298 2.987-3.306 8.168-11 9.19-11.445.359-.154 1.817 1.208 1.817 2.222 0 .222-.05.436-.148.64a350.173 350.173 0 00-4.894 4.613 260.506 260.506 0 00-5.119 5.045C29.448 18.786 22.94 26.785 22.94 26.785c.099.117 12.49-5 16.726-7.64 1.168-.73 2.453-2.328 3.596-3.517 1.365-1.418 2.589-2.762 3.624-4.004 2.629-3.152 3.936-5.627 3.954-7.515.025-2.437-1.9-3.627-5.845-3.5-7.838.25-15.54 4.112-22.51 7.378-4.448 2.082-8.823 4.591-12.762 7.486-2.388 1.755-5.66 4.527-5.638 7.682.003.47.158.862.414 1.121.124.127.263.21.532.37.951.57 1.38.55 1.548.888a.639.639 0 01-.241.815c-.405.238-1.113.013-1.604-.157a6.792 6.792 0 01-2.583-1.567C.93 23.445.05 22.172.053 21.65c.055-5.72 9.957-9.841 14.331-12.022 3.399-1.694 6.98-3.198 10.55-4.666 3.003-1.236 5.456-2.166 7.332-2.7C36.18 1.146 40.23.114 44.35.006c2.203-.059 4.001.294 5.364 1.004 1.495.779 2.224 1.913 2.205 3.415-.021 1.798-1.028 4.016-3.027 6.797-1.715 2.388-5.787 6.773-5.787 6.773.019.03 2.342-.662 3.513-.88.593-.112 1.773-.223 1.773-.223 0 .009-4.65.967-5.975 1.832-1.025.67-2.468 2.428-4.127 3.952-2.039 1.872-4.087 3.701-6.13 5.391-3.957 3.275-8.334 7.19-13.302 8.624a8.466 8.466 0 01-4.047.176c-1.455-.3-2.225-.98-2.262-2.02-.03-.878.847-2.015 2.61-3.347a33.156 33.156 0 012.228-1.532c.29-.183.649-.396 1.07-.634.175-.108.262-.164.435-.272.148-.086.225-.127.374-.213.651-.843 2.434-2.979 5.329-6.278zM20.23 33.976c-.788.198-1.505.01-2.157-.547a3.384 3.384 0 01-1.075-1.64l.247-.334-.188.133-.254.194c-.204.14-.306.207-.506.343-.51.362-.936.692-1.276.986-.983.852-1.47 1.489-1.458 1.91.015.416.407.685 1.152.76a5.269 5.269 0 001.82-.146c4.526-1.19 8.591-4.381 12.274-7.193 1.816-1.387 3.688-2.957 5.591-4.579 1.483-1.264 4.035-3.55 4.035-3.55-.046-.071-11.415 5.296-16.92 8.435-.118.189-.18.284-.297.473-.142.213-.216.318-.358.531a7.951 7.951 0 00-.655 1.106c-.439.89-.708 1.635-.692 2.188.018.612.358.883 1.022.81a8.833 8.833 0 00-.305.12z"/><path d="M44.13 22.978c.008-.077-.146-.358-.146-.553 0-.66 1.103-2.453 3.293-5.221.522-.65.785-.974 1.31-1.616.241-.294.361-.442.602-.732.242-.29.359-.436.6-.727.852-1.056 1.477-2.107 1.69-2.215.457-.232 1.912.72 1.844.992-.083.33-1.158 1.13-1.875 1.885-.723.76-2.055 2.175-2.048 2.193.04.14 1.331.763 1.115 1.517-.185.659-1.832 2.658-1.832 2.658s2.246-2.305 3.62-3.934a190.796 190.796 0 003.034-3.692c.319-.395.65-.828.995-1.291.087-.09.13-.136.213-.226l.13-.213c.114-.124.192-.244.213-.257.158-.083.705.14.909.362.135.148.395.618.355.75-.167.554-2.28 2.213-3.723 4.19-1.678 2.3-2.515 4.824-2.404 4.904.102.07 1.833-1.19 3.77-3.031.651-.618 1.34-1.317 2.066-2.018.275-.262.544-.522.791-.778.195-.201.498-.498.498-.498.003.003-.64.884-1.171 1.542a75.198 75.198 0 01-1.943 2.29c-1.78 2.039-3.037 3.203-3.76 3.383a1.434 1.434 0 01-1.403-.374c-.352-.34-.528-.748-.522-1.187.003-.207.065-.45.185-.732.056-.151.084-.226.136-.374.075-.139.109-.21.183-.349-1.61 1.94-3.151 3.884-4.227 4.397-.444.213-1.232-.022-1.791-.346-.207-.12-.402-.315-.526-.42-.065-.056-.216-.133-.24-.198.006-.01.058-.065.058-.08zm4.352-5.19c-.185.037-.834 1.044-1.588 2.026-1.152 1.5-1.421 2.336-.667 2.448.037-.01.055-.013.093-.022 2.752-2.42 2.69-4.557 2.162-4.452z"/><path d="M65.273 14.818c-.714 1.1-2.277 2.991-2.277 2.991.015.022 1.572-.683 2.561-1.353.35-.238.742-.522 1.168-.862l.522-.399c.195-.154.29-.234.485-.389a11.99 11.99 0 01-.945 1.128c-.405.439-.81.843-1.215 1.168-1.096.883-2.576 1.056-3.092 1.26-.207.08-.528.55-.794.8-.361.344-.72.643-1.038.897-.887.707-1.64 1.146-2.258 1.288-.68.158-1.252.065-1.712-.247-.45-.306-.692-.742-.683-1.307.013-.742.699-2.005 2.052-3.695 1.127-1.406 2.465-2.49 3.166-3.266.198-.22.383-.566.572-.816a9.71 9.71 0 01.806-.958c.69-.707 1.329-1.087 1.919-1.146.707-.071 1.27.105 1.64.516.312.346.479.834.473 1.384-.003.67-.491 1.68-1.35 3.006zm-7.68 5.948c.49-.111 1.152-.513 1.961-1.19.297-.247.609-.534.933-.849.241-.235.692-.658.686-.692-.028-.17-1.093-2.256-1.093-2.256-.01-.003-.241.29-.371.44-.14.16-.303.345-.454.521-.365.43-.683.896-.958 1.292-.788 1.124-1.183 1.953-1.192 2.428-.004.278.157.38.488.306zm9.546-17.874c-2.617.445-5.172 1.53-5.25 2-.033.212.798.901 1.654 1.337.303.154.71.346 1.214.553.479.204.717.309 1.195.513 1.95.837 2.657 1.755 2.231 2.765-.216.51-.942 1.539-2.194 3.124l-.139-1.455c.637-.544 1.032-.949 1.15-1.208.278-.615-.362-1.32-1.913-2.033l-1.016-.424c-.182-.08-.275-.123-.457-.204l-.498-.2c-1.08-.588-2.35-1.428-2.604-2.095-.096-.254.056-.739.185-1.01.473-1.014 2.57-2.012 6.213-2.683 3.312-.608 5.549-.658 6.778-.3l.235.087c.093.047.14.068.235.115-.016.324-.022.488-.034.815-2.129-.216-4.455-.13-6.985.303zm-5.404 11.253c-.38.55-.58 1.264-.602 2.132-.015.58.324 1.375.395 1.378.337.006 1.79-2.129 2.512-3.282.85-1.353 1.28-2.477 1.307-3.33l.006-.18a18.915 18.915 0 00-.03-.172c-.047-.115-.158-.161-.334-.143-.356.037-.797.26-1.236.677a8.64 8.64 0 00-.513.516c-.133.145-.399.473-.399.476.016.04.726.232.726.238.01.185-1.532 1.257-1.832 1.69z"/><path d="M70.772 17.476a14.7 14.7 0 01-.93.772c-.794.606-1.465.976-2.014 1.081-.603.118-1.106.013-1.508-.287a1.378 1.378 0 01-.584-1.208c.022-.67.643-1.792 1.86-3.272 1.016-1.233 2.215-2.178 2.842-2.849.18-.191.346-.5.516-.72.244-.318.485-.6.726-.84.618-.618 1.192-.94 1.715-.973.63-.04 1.112.142 1.449.531.293.337.426.763.404 1.28-.028.623-.463 1.51-1.242 2.681-.645.97-1.328 1.863-2.06 2.626l-.464.482c-.238.241-.475.48-.71.696zm-1.381-3.13c-.1.126-.22.256-.334.386-.124.142-.275.303-.408.457-.327.374-.615.788-.862 1.134-.71.992-1.069 1.727-1.084 2.154-.01.253.133.352.423.296.436-.083 1.026-.42 1.749-1.004a19.098 19.098 0 001.449-1.338c.13-.133.194-.197.324-.327a20.813 20.813 0 002.268-2.883c.772-1.199 1.168-2.203 1.202-2.979l.006-.16c-.01-.065-.016-.096-.028-.16-.04-.106-.14-.152-.297-.143-.315.022-.71.207-1.106.569-.142.13-.312.29-.463.448-.12.126-.362.414-.362.417.013.04.64.235.64.244.006.17-1.372 1.084-1.64 1.467-.245.343-.414.776-.504 1.292l-.006.17c-.38-.019-.575-.028-.967-.04zm5.549 1.248s2.727-2.484 4.247-3.624c1.95-1.462 3.59-2.528 4.517-2.685.241-.04.516.114.677.333.139.192.244.467.191.646-.275.952-1.322 2.172-2.144 3.195l.68-.09c.256-.024.386-.037.642-.058.368-.019 1.091.021 1.091.021 0 .006-2.28.195-2.728.488-.099.065-.229.278-.35.418-.147.17-.296.358-.447.528-.39.445-.803.85-1.18 1.205-1.029.976-1.879 1.56-2.549 1.65a1.763 1.763 0 01-1.217-.247c-.368-.235-.55-.553-.532-.921.022-.442.754-1.044 2.145-1.653a24.834 24.834 0 011.612-.637c.201-.07.42-.142.621-.204.18-.052.38-.083.464-.136.97-.627 2.965-4.01 2.965-4.01-.046-.056-2.972 1.566-5.171 3.374-2.407 1.978-3.936 4.465-4.288 4.665-.27.152-1.171-.49-1.143-1.146 0-.018.537-.735 1.612-2.014.315-.374.587-.692.794-.94.312-.367.621-.726.909-1.075.284-.346.587-.723.905-1.127.176-.242.265-.362.441-.6.09-.108.279-.38.575-.754.17-.213.312-.405.405-.531.154-.21.334-.42.47-.606.793-1.066 1.603-1.977 2.273-2.719 2.03-2.243 3.386-3.26 4.081-3.204.306.025.609.114.906.263.33.17.59.423.586.59-.009.788-1.424 2.23-3.345 3.686-1.638 1.239-3.275 2.292-4.906 3.136-.365.473-.547.71-.909 1.187-1.248 1.59-2.9 3.596-2.9 3.596zm3.74.13c.214-.176.464-.386.742-.634.17-.151.677-.64.677-.64 0-.002-.22.09-.343.13-.16.053-.334.105-.5.174-.42.17-.816.364-1.175.553-.976.506-1.498.951-1.513 1.316-.004.07.04.136.12.167.074.027.18.037.253.018.504-.136 1.137-.593 1.74-1.084zm4.743-8.602c1.316-1.143 2.734-3.285 2.734-3.285-.043-.043-2.116 1.314-3.531 2.682a39.477 39.477 0 00-1.702 1.78c-.43.473-1.443 1.65-1.443 1.65.015.015 2.817-1.85 3.942-2.827zM14.675 39.394c-.105.13-.8 1.001-.584 2.166a2.62 2.62 0 00.812 1.44c20.436-9.35 37.49-14.988 49.68-18.47 8.79-2.513 19.402-5.142 19.328-5.442-.074-.305-11.212 1.993-19.615 4.011-12.252 2.938-29.269 7.82-49.621 16.295z"/></g><defs><clipPath id="clip0_608_301"><path fill="#fff" d="M0 0h87v43H0z"/></clipPath></defs></svg>