<svg width="21" height="18" viewBox="0 0 21 18" fill="none" xmlns="http://www.w3.org/2000/svg">
<path d="M15.0587 6.87508L11.2262 1.13508C11.06 0.890078 10.78 0.767578 10.5 0.767578C10.22 0.767578 9.94 0.890078 9.77375 1.14383L5.94125 6.87508H1.75C1.26875 6.87508 0.875 7.26883 0.875 7.75008C0.875 7.82883 0.88375 7.90758 0.91 7.98633L3.1325 16.0976C3.33375 16.8326 4.0075 17.3751 4.8125 17.3751H16.1875C16.9925 17.3751 17.6663 16.8326 17.8763 16.0976L20.0987 7.98633L20.125 7.75008C20.125 7.26883 19.7313 6.87508 19.25 6.87508H15.0587ZM7.875 6.87508L10.5 3.02508L13.125 6.87508H7.875ZM10.5 13.8751C9.5375 13.8751 8.75 13.0876 8.75 12.1251C8.75 11.1626 9.5375 10.3751 10.5 10.3751C11.4625 10.3751 12.25 11.1626 12.25 12.1251C12.25 13.0876 11.4625 13.8751 10.5 13.8751Z" fill="white"/>
</svg>
