<svg width="21" height="18" fill="none" xmlns="http://www.w3.org/2000/svg"><path d="M15.059 6.875l-3.833-5.74A.868.868 0 0010.5.768c-.28 0-.56.122-.726.376L5.94 6.875H1.75a.878.878 0 00-.875.875c0 .079.009.158.035.236l2.222 8.112a1.74 1.74 0 001.68 1.277h11.375a1.76 1.76 0 001.69-1.277l2.222-8.112.026-.236a.878.878 0 00-.875-.875h-4.191zm-7.184 0l2.625-3.85 2.625 3.85h-5.25zm2.625 7c-.963 0-1.75-.787-1.75-1.75 0-.962.787-1.75 1.75-1.75s1.75.788 1.75 1.75c0 .963-.787 1.75-1.75 1.75z" fill="#fff"/></svg>