<svg width="87" height="43" viewBox="0 0 87 43" fill="none" xmlns="http://www.w3.org/2000/svg">
<g clip-path="url(#clip0_1_20)">
<path d="M24.5945 22.5706C24.9436 22.1782 25.1197 21.9805 25.4688 21.5881C25.8395 21.1617 26.0249 20.9485 26.3956 20.5221C27.1247 19.7126 27.7828 18.9958 28.3419 18.3716C29.7692 16.7742 31.073 15.319 32.1975 14.0738C35.1849 10.7678 40.3658 3.07431 41.3884 2.62938C41.7468 2.47489 43.2049 3.83747 43.2049 4.85091C43.2049 5.07337 43.1555 5.28656 43.0567 5.49049C42.0866 6.38651 41.6016 6.83762 40.6377 7.74909C39.646 8.68528 39.1517 9.15493 38.1631 10.1035C35.982 12.1952 34.2705 13.907 33.044 15.149C29.4479 18.7857 22.9386 26.785 22.9386 26.785C23.0375 26.9024 35.429 21.7858 39.6645 19.1441C40.8323 18.4149 42.1175 16.8175 43.2606 15.6279C44.6261 14.2098 45.8495 12.8657 46.8844 11.6236C49.5135 8.47209 50.8203 5.99721 50.8388 4.10937C50.8635 1.67156 48.9388 0.482008 44.9937 0.608688C37.1559 0.858957 29.4541 4.72114 22.4845 7.987C18.0358 10.0695 13.6612 12.5784 9.72225 15.4735C7.33416 17.2284 4.06251 19.9999 4.08414 23.1546C4.08723 23.6242 4.2417 24.0166 4.49812 24.2761C4.62169 24.4028 4.76071 24.4862 5.02949 24.6469C5.98102 25.2154 6.41044 25.1969 6.57727 25.5337C6.71011 25.7994 6.6267 26.1763 6.3363 26.3494C5.93159 26.5873 5.22412 26.3617 4.73291 26.1918C3.3087 25.7098 2.47148 24.9343 2.15019 24.6253C0.929882 23.445 0.049409 22.172 0.0524983 21.6499C0.108107 15.9307 10.0096 11.809 14.3841 9.62766C17.7824 7.93448 21.363 6.42977 24.9344 4.96214C27.9372 3.72624 30.3902 2.79623 32.2655 2.2617C36.1797 1.1463 40.2299 0.114328 44.3511 0.00618704C46.5538 -0.0525181 48.3519 0.299713 49.7143 1.01035C51.2095 1.78897 51.9386 2.92291 51.9201 4.42452C51.8985 6.22276 50.8913 8.4412 48.8925 11.222C47.1779 13.6103 43.1061 17.9947 43.1061 17.9947C43.1246 18.0256 45.4478 17.3335 46.6187 17.1141C47.2119 17.0029 48.392 16.8917 48.392 16.8917C48.392 16.9009 43.7425 17.8587 42.4172 18.7239C41.3915 19.3943 39.9487 21.1524 38.2897 22.6757C36.2508 24.548 34.2025 26.3772 32.1604 28.0673C28.2029 31.3424 23.8253 35.2571 18.8575 36.6907C17.4673 37.0924 16.074 37.1264 14.8105 36.8669C13.3554 36.5672 12.5861 35.8874 12.549 34.8462C12.5181 33.9687 13.3955 32.8317 15.1596 31.5C15.7929 31.0211 16.5436 30.502 17.387 29.9675C17.6774 29.7852 18.0358 29.572 18.4559 29.3341C18.632 29.2259 18.7185 29.1703 18.8915 29.0622C19.0398 28.9756 19.1171 28.9355 19.2653 28.849C19.9172 28.0055 21.6998 25.8705 24.5945 22.5706ZM20.2292 33.9749C19.4414 34.1726 18.7247 33.9841 18.0728 33.428C17.5538 32.9861 17.1893 32.4362 16.9977 31.7873C17.0966 31.6545 17.146 31.5865 17.2449 31.4536C17.1707 31.5062 17.1306 31.534 17.0564 31.5865C16.9545 31.6637 16.9051 31.7039 16.8031 31.7811C16.5992 31.9202 16.4973 31.9882 16.2965 32.1241C15.7867 32.4856 15.3604 32.8162 15.0205 33.1097C14.0381 33.9625 13.55 34.599 13.5624 35.0192C13.5778 35.4363 13.9702 35.7051 14.7147 35.7793C15.3171 35.838 15.9474 35.7885 16.5343 35.6341C21.0603 34.4445 25.1259 31.2528 28.8084 28.4411C30.625 27.0538 32.4972 25.4842 34.4002 23.8621C35.8831 22.5984 38.4349 20.312 38.4349 20.312C38.3886 20.2409 27.0197 25.6078 21.5144 28.747C21.397 28.9355 21.3352 29.0313 21.2178 29.2197C21.0757 29.4329 21.0016 29.538 20.8595 29.7512C20.5783 30.1467 20.3652 30.5298 20.2045 30.8573C19.7658 31.7472 19.497 32.4918 19.5125 33.0448C19.531 33.6566 19.8709 33.9285 20.5351 33.8544C20.4115 33.9007 20.3497 33.9254 20.2292 33.9749Z" fill="#010202"/>
<path d="M44.1287 22.9784C44.1379 22.9012 43.9835 22.62 43.9835 22.4254C43.9835 21.7642 45.0864 19.9721 47.2767 17.2037C47.7988 16.5549 48.0614 16.2304 48.5866 15.5878C48.8276 15.2942 48.9481 15.1459 49.1891 14.8555C49.43 14.5651 49.5474 14.4198 49.7884 14.1294C50.6411 13.0727 51.2651 12.0222 51.4783 11.9141C51.9355 11.6823 53.3906 12.634 53.3227 12.9059C53.2392 13.2365 52.1641 14.0367 51.4474 14.7906C50.7245 15.5507 49.393 16.9658 49.3991 16.9843C49.4393 17.1234 50.7307 17.7475 50.5144 18.5014C50.329 19.1595 48.6824 21.1586 48.6824 21.1586C48.6824 21.1586 50.9284 18.8536 52.3032 17.2253C53.2485 16.1038 54.268 14.8679 55.3369 13.5331C55.6551 13.1376 55.9857 12.705 56.3317 12.2416C56.4182 12.152 56.4615 12.1056 56.5449 12.016C56.5974 11.9295 56.6221 11.8893 56.6746 11.8028C56.7889 11.6792 56.8662 11.5587 56.8878 11.5464C57.0454 11.463 57.5922 11.6854 57.7961 11.9079C57.932 12.0562 58.1915 12.5258 58.1514 12.6587C57.9845 13.2117 55.8714 14.8709 54.4286 16.8484C52.7511 19.1472 51.9139 21.6715 52.0251 21.7518C52.1271 21.8229 53.8571 20.5623 55.7942 18.7208C56.446 18.1028 57.1349 17.4045 57.8609 16.7032C58.1359 16.4405 58.4047 16.181 58.6518 15.9245C58.8465 15.7237 59.1492 15.4271 59.1492 15.4271C59.1523 15.4302 58.5097 16.3108 57.9783 16.9689C57.3481 17.7506 56.6839 18.5168 56.0351 19.2584C54.2556 21.2976 52.9983 22.4624 52.2754 22.6417C51.7502 22.7714 51.2682 22.6478 50.8728 22.2678C50.5206 21.9279 50.3445 21.5201 50.3507 21.0813C50.3538 20.8743 50.4155 20.6302 50.536 20.3491C50.5916 20.1977 50.6194 20.1235 50.672 19.9752C50.7461 19.8362 50.7801 19.7651 50.8542 19.6261C49.2447 21.5664 47.7031 23.5099 46.628 24.0228C46.1831 24.236 45.3953 24.0011 44.8361 23.6767C44.6291 23.5562 44.4345 23.3616 44.3109 23.2565C44.2461 23.2009 44.0947 23.1237 44.07 23.0588C44.0761 23.0495 44.1287 22.9939 44.1287 22.9784ZM48.4816 17.7877C48.2962 17.8247 47.6475 18.832 46.8937 19.8145C45.7413 21.3131 45.4725 22.1504 46.2264 22.2616C46.2634 22.2523 46.282 22.2493 46.319 22.24C49.0717 19.8207 49.0099 17.6826 48.4816 17.7877Z" fill="#010202"/>
<path d="M65.2724 14.8184C64.5587 15.9184 62.9955 17.8093 62.9955 17.8093C63.0109 17.8309 64.568 17.1265 65.5566 16.456C65.9057 16.2181 66.298 15.9338 66.7244 15.594C66.9344 15.4333 67.0395 15.353 67.2465 15.1954C67.4411 15.0409 67.5369 14.9606 67.7315 14.8061C67.4535 15.1923 67.126 15.5692 66.7861 15.9338C66.3814 16.3726 65.9767 16.7773 65.572 17.1018C64.4753 17.9854 62.9955 18.1585 62.4796 18.3624C62.2726 18.4427 61.9513 18.9124 61.6856 19.1626C61.3241 19.5056 60.9658 19.8053 60.6476 20.0586C59.7609 20.7662 59.0071 21.2049 58.3892 21.3471C57.7096 21.5047 57.138 21.412 56.6777 21.0999C56.2267 20.794 55.9857 20.3584 55.9949 19.7929C56.0073 19.0514 56.6931 17.7877 58.0463 16.0976C59.1739 14.6918 60.5116 13.6073 61.2129 12.8317C61.4106 12.6124 61.596 12.2663 61.7844 12.016C62.0532 11.6576 62.322 11.3332 62.5908 11.0582C63.2797 10.3507 63.9192 9.97063 64.5093 9.91192C65.2167 9.84086 65.779 10.017 66.1497 10.4279C66.4618 10.774 66.6286 11.2621 66.6224 11.8121C66.6193 12.4826 66.1312 13.4929 65.2724 14.8184ZM57.5922 20.7662C58.0834 20.655 58.7445 20.2533 59.5539 19.5767C59.8505 19.3295 60.1625 19.0421 60.4869 18.727C60.7279 18.4921 61.1789 18.0689 61.1727 18.0349C61.1449 17.8649 60.0791 15.7794 60.0791 15.7794C60.0698 15.7763 59.8381 16.0698 59.7084 16.2181C59.5694 16.3788 59.4056 16.5641 59.2542 16.7403C58.8897 17.1697 58.5715 17.6363 58.2965 18.0318C57.5087 19.1564 57.1133 19.9845 57.104 20.4603C57.1009 20.7384 57.2616 20.8404 57.5922 20.7662ZM67.1383 2.89202C64.5216 3.33694 61.9667 4.42144 61.8895 4.89109C61.8555 5.10428 62.6865 5.79329 63.5423 6.22895C63.8451 6.38343 64.2529 6.575 64.7564 6.78201C65.2353 6.98593 65.4732 7.09099 65.952 7.29491C67.9014 8.13223 68.6089 9.04988 68.1825 10.0602C67.9663 10.57 67.2403 11.5989 65.9891 13.184C65.9335 12.6031 65.9057 12.3127 65.8501 11.7287C66.4865 11.1849 66.8819 10.7801 66.9993 10.5206C67.2774 9.90574 66.6379 9.20128 65.087 8.48755C64.6792 8.31761 64.4784 8.23419 64.0706 8.06426C63.8883 7.98392 63.7956 7.94067 63.6134 7.86033C63.4125 7.78 63.3137 7.73983 63.116 7.6595C62.0347 7.07245 60.7649 6.23204 60.5116 5.56465C60.4158 5.31129 60.5672 4.8262 60.697 4.5543C61.1697 3.54087 63.2673 2.54288 66.9097 1.8724C70.2215 1.26372 72.4583 1.21429 73.6878 1.5727C73.7805 1.60669 73.8299 1.62522 73.9226 1.65921C74.0153 1.70556 74.0616 1.72719 74.1574 1.77353C74.142 2.09796 74.1358 2.26171 74.1234 2.58922C71.9948 2.37294 69.6685 2.45946 67.1383 2.89202ZM61.735 14.1449C61.355 14.6948 61.1542 15.4086 61.1326 16.2768C61.1171 16.8577 61.457 17.6517 61.528 17.6548C61.8648 17.661 63.3168 15.526 64.0397 14.3735C64.8893 13.0202 65.3187 11.8955 65.3465 11.0428C65.3496 10.9717 65.3496 10.9346 65.3527 10.8636C65.3403 10.7925 65.3341 10.7585 65.3218 10.6905C65.2754 10.5762 65.1642 10.5299 64.9881 10.5484C64.6329 10.5855 64.1911 10.808 63.7524 11.2251C63.5948 11.3734 63.4064 11.5557 63.2395 11.7411C63.1067 11.8863 62.841 12.2138 62.841 12.2169C62.8565 12.257 63.567 12.4486 63.567 12.4548C63.5763 12.6402 62.0347 13.7123 61.735 14.1449Z" fill="#010202"/>
<path d="M70.7715 17.4756C70.4471 17.7722 70.1258 18.0287 69.8416 18.2481C69.0476 18.8536 68.3772 19.2244 67.8273 19.3295C67.2249 19.4469 66.7213 19.3418 66.3197 19.0421C65.9274 18.7486 65.7173 18.3469 65.7358 17.834C65.7574 17.1635 66.3784 16.042 67.5956 14.562C68.612 13.3292 69.8107 12.3837 70.4378 11.7132C70.617 11.5217 70.7839 11.2127 70.9538 10.9933C71.1978 10.6751 71.4388 10.3939 71.6798 10.1529C72.2977 9.53497 72.8723 9.21363 73.3944 9.17964C74.0246 9.13948 74.5066 9.32177 74.8433 9.71108C75.1368 10.0479 75.2696 10.4742 75.248 10.9902C75.2202 11.6144 74.7846 12.5011 74.0061 13.6721C73.3604 14.6423 72.6776 15.5353 71.9455 16.2984C71.7601 16.49 71.6674 16.5858 71.4821 16.7804C71.2442 17.0214 71.0063 17.2593 70.7715 17.4756ZM69.3905 14.3457C69.2917 14.4724 69.1712 14.6021 69.0569 14.7319C68.9333 14.874 68.7819 15.0347 68.6491 15.1892C68.3216 15.5631 68.0343 15.9771 67.7872 16.3231C67.0766 17.3149 66.7182 18.0503 66.7028 18.4767C66.6935 18.7301 66.8356 18.8289 67.126 18.7733C67.5616 18.6899 68.1517 18.3531 68.8746 17.7691C69.1403 17.5559 69.4184 17.3088 69.7088 17.0338C69.925 16.8299 70.132 16.629 70.3235 16.4313C70.4533 16.2984 70.5182 16.2335 70.6479 16.1038C71.4851 15.2016 72.2606 14.2406 72.9155 13.221C73.6879 12.0222 74.0833 11.018 74.1173 10.2425C74.1204 10.1776 74.1204 10.1467 74.1235 10.0819C74.1142 10.017 74.108 9.98607 74.0957 9.92118C74.0555 9.81613 73.9567 9.76979 73.7991 9.77906C73.484 9.80068 73.0885 9.98607 72.6931 10.3476C72.551 10.4773 72.3811 10.638 72.2297 10.7956C72.1092 10.9223 71.8682 11.2096 71.8682 11.2127C71.8806 11.2529 72.5077 11.4475 72.5077 11.4568C72.5139 11.6267 71.136 12.5413 70.8673 12.9244C70.6232 13.2674 70.4533 13.6999 70.3637 14.2159C70.3606 14.2839 70.3606 14.3179 70.3575 14.3859C69.9775 14.3673 69.7829 14.3581 69.3905 14.3457Z" fill="#010202"/>
<path d="M74.9391 15.5939C74.9391 15.5939 77.667 13.1098 79.187 11.9697C81.1364 10.5082 82.7768 9.44224 83.7036 9.28467C83.9446 9.2445 84.2196 9.39899 84.3802 9.61836C84.5192 9.80992 84.6243 10.0849 84.5718 10.2641C84.2968 11.2158 83.2495 12.4362 82.4277 13.4589C82.6996 13.4218 82.8355 13.4064 83.1074 13.3693C83.3638 13.3446 83.4936 13.3322 83.75 13.3106C84.1176 13.2921 84.8405 13.3322 84.8405 13.3322C84.8405 13.3384 82.5606 13.5269 82.1126 13.8204C82.0138 13.8853 81.884 14.0985 81.7635 14.2375C81.6152 14.4075 81.4669 14.5959 81.3155 14.7659C80.9263 15.2108 80.5123 15.6156 80.1354 15.9709C79.1067 16.9472 78.2571 17.5312 77.5867 17.6208C77.1449 17.6826 76.7278 17.6023 76.3695 17.3736C76.0018 17.1388 75.8195 16.8206 75.8381 16.4529C75.8597 16.011 76.5919 15.4085 77.9821 14.7999C78.4579 14.5929 79.0171 14.3673 79.5948 14.1634C79.7956 14.0923 80.0149 14.0212 80.2157 13.9595C80.3949 13.9069 80.5957 13.876 80.6791 13.8235C81.6492 13.1963 83.6449 9.81301 83.6449 9.81301C83.5986 9.7574 80.673 11.3795 78.4733 13.187C76.0667 15.1645 74.5375 17.6517 74.1853 17.8525C73.9165 18.0039 73.0144 17.3613 73.0422 16.7062C73.0422 16.6877 73.5797 15.9709 74.6548 14.6917C74.97 14.3179 75.2418 13.9996 75.4488 13.7524C75.7608 13.3848 76.0698 13.0264 76.3571 12.6772C76.6413 12.3312 76.9441 11.9542 77.2623 11.5495C77.4384 11.3085 77.528 11.188 77.7041 10.95C77.7937 10.8419 77.9821 10.57 78.2787 10.1961C78.4486 9.98295 78.5907 9.79139 78.6834 9.66471C78.8379 9.4546 79.0171 9.2445 79.153 9.05912C79.947 7.99315 80.7564 7.08168 81.4268 6.34014C83.4565 4.09698 84.8127 3.08046 85.5078 3.13607C85.8137 3.16079 86.1164 3.25039 86.413 3.3987C86.7436 3.56864 87.0031 3.822 87 3.98884C86.9907 4.77673 85.5758 6.21964 83.6542 7.67491C82.0168 8.9139 80.3795 9.9675 78.7483 10.811C78.3837 11.2837 78.2015 11.5216 77.84 11.9975C76.5919 13.5887 74.9391 15.5939 74.9391 15.5939ZM78.6803 15.7237C78.8935 15.5476 79.1437 15.3375 79.4218 15.0903C79.5917 14.9389 80.0983 14.4507 80.0983 14.4507C80.0983 14.4476 79.879 14.5403 79.7554 14.5805C79.5948 14.633 79.4218 14.6855 79.2549 14.7535C78.8348 14.9235 78.4393 15.1181 78.081 15.3066C77.1047 15.8133 76.5826 16.2582 76.5672 16.6228C76.5641 16.6939 76.6073 16.7588 76.6877 16.7897C76.7618 16.8175 76.8668 16.8267 76.941 16.8082C77.4446 16.6723 78.0779 16.215 78.6803 15.7237ZM83.4225 7.12184C84.7386 5.97864 86.1566 3.83744 86.1566 3.83744C86.1134 3.79419 84.0404 5.15059 82.6255 6.51934C82.0941 7.03224 81.5287 7.63474 80.9232 8.29904C80.4938 8.77177 79.4805 9.94896 79.4805 9.94896C79.4959 9.96441 82.298 8.0982 83.4225 7.12184Z" fill="#010202"/>
<path d="M14.6745 39.3943C14.5695 39.5241 13.8744 40.3954 14.0906 41.5602C14.2359 42.3481 14.7209 42.8332 14.9032 43C35.3394 33.6504 52.3928 28.0117 64.5835 24.5295C73.3727 22.0175 83.9848 19.3882 83.9106 19.0885C83.8365 18.7826 72.6993 21.0814 64.2962 23.099C52.0437 26.0373 35.0274 30.9191 14.6745 39.3943Z" fill="#010202"/>
</g>
<defs>
<clipPath id="clip0_1_20">
<rect width="87" height="43" fill="white"/>
</clipPath>
</defs>
</svg>
