<svg width="87" height="43" fill="none" xmlns="http://www.w3.org/2000/svg"><g clip-path="url(#clip0_1_20)" fill="#010202"><path d="M24.595 22.57l.874-.982.927-1.066c.729-.81 1.387-1.526 1.946-2.15 1.427-1.598 2.731-3.053 3.855-4.298 2.988-3.306 8.169-11 9.191-11.445.359-.154 1.817 1.208 1.817 2.222 0 .222-.05.436-.148.64a350.173 350.173 0 00-4.894 4.613 260.506 260.506 0 00-5.119 5.045c-3.596 3.637-10.105 11.636-10.105 11.636.099.117 12.49-5 16.725-7.64 1.168-.73 2.453-2.328 3.597-3.517a76.607 76.607 0 003.623-4.004c2.63-3.152 3.936-5.627 3.955-7.515.025-2.437-1.9-3.627-5.845-3.5-7.838.25-15.54 4.112-22.51 7.378-4.448 2.082-8.823 4.591-12.762 7.486-2.388 1.755-5.66 4.527-5.638 7.682.003.47.158.862.414 1.121.124.127.263.21.531.37.952.57 1.381.55 1.548.888a.639.639 0 01-.24.815c-.405.238-1.113.013-1.604-.157a6.791 6.791 0 01-2.583-1.567C.93 23.445.05 22.172.052 21.65c.056-5.72 9.958-9.841 14.332-12.022 3.398-1.694 6.979-3.198 10.55-4.666 3.003-1.236 5.456-2.166 7.332-2.7C36.18 1.146 40.23.114 44.35.006c2.203-.059 4 .294 5.363 1.004 1.495.779 2.225 1.913 2.206 3.415-.022 1.798-1.029 4.016-3.028 6.797-1.714 2.388-5.786 6.773-5.786 6.773.019.03 2.342-.662 3.513-.88.593-.112 1.773-.223 1.773-.223 0 .009-4.65.967-5.975 1.832-1.026.67-2.468 2.428-4.127 3.952-2.04 1.872-4.087 3.701-6.13 5.391-3.957 3.275-8.335 7.19-13.302 8.624a8.466 8.466 0 01-4.048.176c-1.455-.3-2.224-.98-2.261-2.02-.03-.878.847-2.015 2.61-3.347a33.156 33.156 0 012.228-1.532c.29-.183.649-.396 1.069-.634.176-.108.262-.164.436-.272.148-.086.225-.127.373-.213.652-.843 2.435-2.979 5.33-6.278zm-4.366 11.405c-.788.198-1.504.01-2.156-.547a3.384 3.384 0 01-1.075-1.64l.247-.334-.189.133c-.102.077-.15.117-.253.194-.204.14-.306.207-.506.343-.51.362-.937.692-1.277.986-.982.852-1.47 1.489-1.458 1.91.016.416.408.685 1.153.76a5.27 5.27 0 001.82-.146c4.525-1.19 8.59-4.381 12.273-7.193 1.817-1.387 3.69-2.957 5.592-4.579 1.483-1.264 4.035-3.55 4.035-3.55-.046-.071-11.415 5.296-16.92 8.435-.118.189-.18.284-.297.473-.142.213-.216.318-.358.531a7.953 7.953 0 00-.655 1.106c-.44.89-.708 1.635-.692 2.188.018.612.358.883 1.022.81a8.76 8.76 0 00-.306.12z"/><path d="M44.129 22.978c.009-.077-.145-.358-.145-.553 0-.66 1.102-2.453 3.293-5.221a177.105 177.105 0 011.912-2.348c.241-.29.358-.436.6-.727.852-1.056 1.476-2.107 1.69-2.215.456-.232 1.912.72 1.844.992-.084.33-1.159 1.13-1.876 1.885-.723.76-2.054 2.175-2.048 2.193.04.14 1.332.763 1.115 1.517-.185.659-1.832 2.658-1.832 2.658s2.246-2.305 3.621-3.934a190.44 190.44 0 003.034-3.692c.318-.395.649-.828.995-1.291.086-.09.13-.136.213-.226l.13-.213c.114-.124.191-.244.213-.257.157-.083.704.14.908.362.136.148.395.618.355.75-.167.554-2.28 2.213-3.722 4.19-1.678 2.3-2.515 4.824-2.404 4.904.102.07 1.832-1.19 3.77-3.031.651-.618 1.34-1.317 2.066-2.018.275-.262.544-.522.79-.778.195-.201.498-.498.498-.498.003.003-.64.884-1.17 1.542a74.912 74.912 0 01-1.944 2.29c-1.78 2.039-3.037 3.203-3.76 3.383a1.434 1.434 0 01-1.402-.374c-.352-.34-.529-.748-.522-1.187.003-.207.065-.45.185-.732.056-.151.083-.226.136-.374.074-.139.108-.21.182-.349-1.61 1.94-3.15 3.884-4.226 4.397-.445.213-1.233-.022-1.792-.346-.207-.12-.401-.315-.525-.42-.065-.056-.216-.133-.241-.198.006-.01.059-.065.059-.08zm4.353-5.19c-.186.037-.834 1.044-1.588 2.026-1.153 1.5-1.422 2.336-.668 2.448.037-.01.056-.013.093-.022 2.753-2.42 2.69-4.557 2.163-4.452z"/><path d="M65.272 14.818c-.713 1.1-2.277 2.991-2.277 2.991.016.022 1.573-.683 2.562-1.353a19.26 19.26 0 001.167-.862l.522-.399c.195-.154.29-.234.486-.389-.278.386-.606.763-.946 1.128-.405.439-.81.843-1.214 1.168-1.097.883-2.577 1.056-3.092 1.26-.207.08-.529.55-.794.8-.362.344-.72.643-1.038.897-.887.707-1.64 1.146-2.259 1.288-.68.158-1.251.065-1.711-.247-.451-.306-.692-.742-.683-1.307.012-.742.698-2.005 2.051-3.695 1.128-1.406 2.466-2.49 3.167-3.266.198-.22.383-.566.571-.816.27-.358.538-.683.807-.958.689-.707 1.328-1.087 1.918-1.146.708-.071 1.27.105 1.64.516.313.346.48.834.473 1.384-.003.67-.49 1.68-1.35 3.006zm-7.68 5.948c.491-.111 1.153-.513 1.962-1.19.296-.247.608-.534.933-.849.24-.235.692-.658.686-.692-.028-.17-1.094-2.256-1.094-2.256-.01-.003-.24.29-.37.44-.14.16-.303.345-.455.521-.364.43-.682.896-.957 1.292-.788 1.124-1.184 1.953-1.193 2.428-.003.278.158.38.488.306zm9.546-17.874c-2.616.445-5.171 1.53-5.249 2-.034.212.797.901 1.653 1.337.303.154.71.346 1.214.553.48.204.717.309 1.196.513 1.95.837 2.657 1.755 2.23 2.765-.216.51-.942 1.539-2.193 3.124l-.139-1.455c.637-.544 1.032-.949 1.15-1.208.277-.615-.362-1.32-1.913-2.033l-1.016-.424c-.183-.08-.275-.123-.458-.204l-.497-.2c-1.081-.588-2.351-1.428-2.604-2.095-.096-.254.055-.739.185-1.01.473-1.014 2.57-2.012 6.213-2.683 3.312-.608 5.548-.658 6.778-.3l.235.087c.092.047.139.068.234.115-.015.324-.021.488-.034.815-2.128-.216-4.455-.13-6.985.303zm-5.403 11.253c-.38.55-.58 1.264-.602 2.132-.016.58.324 1.375.395 1.378.337.006 1.789-2.129 2.512-3.282.85-1.353 1.279-2.477 1.306-3.33.004-.071.004-.108.007-.18l-.031-.172c-.047-.115-.158-.161-.334-.143-.355.037-.797.26-1.236.677a8.95 8.95 0 00-.513.516c-.132.145-.398.473-.398.476.015.04.726.232.726.238.01.185-1.532 1.257-1.832 1.69z"/><path d="M70.772 17.476a14.7 14.7 0 01-.93.772c-.794.606-1.465.976-2.015 1.081-.602.118-1.106.013-1.507-.287-.393-.293-.603-.695-.584-1.208.021-.67.642-1.792 1.86-3.272 1.016-1.233 2.215-2.178 2.842-2.849.179-.191.346-.5.516-.72.244-.318.485-.6.726-.84.618-.618 1.192-.94 1.714-.973.63-.04 1.113.142 1.45.531.293.337.426.763.404 1.28-.028.623-.463 1.51-1.242 2.681-.646.97-1.328 1.863-2.06 2.626-.186.192-.279.288-.464.482-.238.241-.476.48-.71.696zm-1.382-3.13c-.098.126-.219.256-.333.386-.124.142-.275.303-.408.457-.327.374-.615.788-.862 1.134-.71.992-1.069 1.727-1.084 2.154-.01.253.133.352.423.296.436-.083 1.026-.42 1.749-1.004a19.196 19.196 0 001.449-1.338c.13-.133.194-.197.324-.327a20.813 20.813 0 002.267-2.883c.773-1.199 1.168-2.203 1.202-2.979.003-.064.003-.095.007-.16-.01-.065-.016-.096-.028-.16-.04-.106-.14-.152-.297-.143-.315.022-.71.207-1.106.569-.142.13-.312.29-.463.448-.12.126-.362.414-.362.417.013.04.64.235.64.244.006.17-1.372 1.084-1.64 1.467-.245.343-.415.776-.504 1.292-.003.068-.003.102-.007.17-.38-.019-.574-.028-.966-.04zm5.55 1.248s2.727-2.484 4.247-3.624c1.95-1.462 3.59-2.528 4.517-2.685.24-.04.516.114.676.333.14.192.244.467.192.646-.275.952-1.323 2.172-2.144 3.195l.68-.09c.256-.024.386-.037.642-.058a14.41 14.41 0 011.09.021c0 .006-2.28.195-2.727.488-.1.065-.229.278-.35.418-.148.17-.296.358-.448.528-.389.445-.803.85-1.18 1.205-1.028.976-1.878 1.56-2.548 1.65a1.763 1.763 0 01-1.218-.247c-.367-.235-.55-.553-.53-.921.02-.442.753-1.044 2.143-1.653a24.834 24.834 0 011.613-.637c.2-.07.42-.142.62-.204.18-.052.38-.083.464-.136.97-.627 2.966-4.01 2.966-4.01-.046-.056-2.972 1.566-5.172 3.374-2.406 1.978-3.936 4.465-4.288 4.665-.269.152-1.17-.49-1.143-1.146 0-.018.538-.735 1.613-2.014.315-.374.587-.692.794-.94.312-.367.62-.726.908-1.075.284-.346.587-.723.905-1.127.176-.242.266-.362.442-.6.09-.108.278-.38.575-.754.17-.213.312-.405.404-.531.155-.21.334-.42.47-.606.794-1.066 1.603-1.977 2.274-2.719 2.03-2.243 3.386-3.26 4.08-3.204.307.025.61.114.906.263.33.17.59.423.587.59-.01.788-1.424 2.23-3.346 3.686-1.637 1.239-3.275 2.292-4.906 3.136-.364.473-.547.71-.908 1.187-1.248 1.59-2.9 3.596-2.9 3.596zm3.74.13c.213-.176.464-.386.742-.634.17-.151.676-.64.676-.64 0-.002-.219.09-.343.13-.16.053-.333.105-.5.174-.42.17-.816.364-1.174.553-.976.506-1.498.951-1.514 1.316-.003.07.04.136.12.167a.48.48 0 00.254.018c.504-.136 1.137-.593 1.74-1.084zm4.742-8.602c1.317-1.143 2.735-3.285 2.735-3.285-.044-.043-2.117 1.314-3.531 2.682a39.477 39.477 0 00-1.703 1.78c-.43.473-1.442 1.65-1.442 1.65.015.015 2.817-1.85 3.942-2.827zM14.675 39.394c-.106.13-.8 1.001-.584 2.166a2.62 2.62 0 00.812 1.44c20.436-9.35 37.49-14.988 49.68-18.47 8.79-2.513 19.402-5.142 19.328-5.442-.075-.305-11.212 1.993-19.615 4.011-12.252 2.938-29.269 7.82-49.622 16.295z"/></g><defs><clipPath id="clip0_1_20"><path fill="#fff" d="M0 0h87v43H0z"/></clipPath></defs></svg>