<svg width="23" height="13" fill="none" xmlns="http://www.w3.org/2000/svg"><g clip-path="url(#clip0_1132_908)"><path d="M13.4 3.117c0 .65-.014 1.3.006 1.95.008.257.053.526.144.765.196.515.63.617.988.202a17.48 17.48 0 001.393-1.807c.622-.943 1.096-1.97 1.508-3.021.03-.077.068-.15.099-.226.154-.38.443-.538.847-.536.928.006 1.856.002 2.784.002.27 0 .54-.001.809.003.12.002.24.004.358.022.612.096.777.364.594.953-.233.753-.651 1.41-1.107 2.04-.691.957-1.404 1.899-2.105 2.85-.12.162-.23.332-.33.507-.217.378-.196.752.092 1.08.271.308.564.598.86.882.737.703 1.48 1.4 2.08 2.228a4.1 4.1 0 01.477.806c.076.18.08.41.054.61a.62.62 0 01-.608.558c-1.257.011-2.515.023-3.772-.007-.72-.016-1.285-.404-1.765-.917-.485-.519-.963-1.045-1.45-1.561a2.836 2.836 0 00-.41-.35c-.465-.334-.941-.227-1.152.302-.151.383-.226.799-.313 1.205-.05.232-.046.475-.085.71-.051.314-.243.523-.559.56-.4.046-.804.077-1.206.074-2.854-.024-5.075-1.287-6.817-3.486C3.08 7.327 1.753 4.9.584 2.38c-.17-.366-.349-.728-.501-1.1C-.116.793.042.535.563.473.755.45.95.453 1.145.453 2.066.45 2.987.454 3.907.451c.436-.002.747.192.932.579.342.713.633 1.454 1.022 2.14.48.85 1.026 1.665 1.571 2.477.15.222.378.406.602.56.313.218.604.135.746-.22.115-.287.2-.598.23-.904.102-1.052.113-2.105-.069-3.151-.095-.546-.421-.892-.962-1.034-.393-.102-.4-.157-.13-.468.268-.305.606-.427.996-.428C10.058 0 11.27-.002 12.483.004c.573.003.9.381.909 1.05.01.688.002 1.376.002 2.063h.005z" fill="#000"/></g><defs><clipPath id="clip0_1132_908"><path fill="#fff" d="M0 0h23v13H0z"/></clipPath></defs></svg>