<svg width="76" height="66" fill="none" xmlns="http://www.w3.org/2000/svg"><g clip-path="url(#clip0_1241_288)" fill="#515151"><path d="M6.983 41.255c-1.567 0-2.953.021-4.335-.004-2.017-.038-2.641-.639-2.641-2.6C0 26.649-.003 14.649.007 2.646.01.523.638.003 3.14 0c13.495-.004 26.99 0 40.483 0 9.656 0 19.31-.004 28.966 0 2.928 0 3.406.495 3.406 3.488 0 11.533.004 23.066 0 34.602 0 2.603-.569 3.158-3.193 3.168-1.208.004-2.415 0-3.853 0 1.078 3.83 2.084 7.416 3.096 11 .998 3.54 2.024 7.07 3 10.615.601 2.175-.097 3.063-2.351 3.08-1.92.015-3.843-.062-5.759.025-1.455.07-2.209-.569-2.743-1.879-2.865-7.026-5.821-14.013-8.665-21.046-.53-1.313-1.152-1.847-2.639-1.833-9.946.077-19.892.074-29.838 0-1.48-.01-2.094.502-2.628 1.834-2.81 6.983-5.752 13.914-8.592 20.883-.583 1.427-1.372 2.165-2.998 2.049-1.794-.13-3.605-.025-5.406-.032-2.478-.01-3.148-.868-2.478-3.26 1.811-6.467 3.65-12.924 5.476-19.388.17-.607.331-1.219.558-2.051zM48.307 4.113v33.004h23.554V4.113H48.307zM3.975 18.52h40.218V4.155H3.974V18.52zm0 18.618h40.214V22.774H3.975v14.364zM70.479 61.86c.014-.168.08-.354.034-.509-1.797-6.39-3.594-12.78-5.44-19.152-.108-.376-.642-.868-1.002-.892-1.588-.099-3.183-.043-4.952-.043.262.76.405 1.255.6 1.732 2.36 5.698 4.722 11.396 7.088 17.09.942 2.263.995 2.284 3.672 1.774zm-53.61-20.455c-.467-.07-.694-.127-.92-.137-4.789-.207-4.796-.21-6.111 4.412-1.529 5.378-3.04 10.764-4.747 16.813 1.477-.496 3.13-.555 3.428-1.226 2.886-6.496 5.541-13.09 8.35-19.862z"/><path d="M27.525 9.805v3.66H20.69v-3.66h6.836zm-6.812 18.509h6.735v3.748h-6.735v-3.748z"/></g><defs><clipPath id="clip0_1241_288"><path fill="#fff" d="M0 0h76v66H0z"/></clipPath></defs></svg>